<?xml version="1.0" standalone="no"?>
<!DOCTYPE svg PUBLIC "-//W3C//DTD SVG 20010904//EN"
 "http://www.w3.org/TR/2001/REC-SVG-20010904/DTD/svg10.dtd">
<svg version="1.0" xmlns="http://www.w3.org/2000/svg"
 width="260.000000pt" height="260.000000pt" viewBox="0 0 260.000000 260.000000"
 preserveAspectRatio="xMidYMid meet">
<metadata>
Created by potrace 1.11, written by Peter Selinger 2001-2013
</metadata>
<g transform="translate(0.000000,260.000000) scale(0.100000,-0.100000)"
fill="#000000" stroke="none">
<path d="M1090 1945 c-173 -32 -263 -78 -375 -190 -65 -65 -142 -171 -158
-218 -1 -5 -33 -9 -71 -9 -227 0 -411 -134 -471 -341 -38 -132 9 -291 119
-400 121 -120 289 -162 526 -133 218 28 382 129 495 306 35 55 51 70 82 80 21
7 46 20 57 29 112 99 -3 276 -148 226 -91 -31 -127 -125 -75 -197 10 -15 19
-35 19 -44 0 -22 -80 -132 -122 -167 -133 -111 -255 -148 -463 -143 -104 3
-128 7 -177 29 -32 14 -74 38 -94 53 -124 95 -165 291 -88 417 84 136 189 190
361 189 114 -2 110 -4 158 93 125 253 430 391 705 320 178 -46 305 -142 395
-300 15 -27 33 -53 39 -57 5 -4 26 0 45 9 100 44 214 58 309 38 123 -25 243
-118 298 -230 26 -54 29 -70 29 -155 0 -88 -3 -101 -33 -162 -61 -124 -171
-208 -306 -233 -36 -6 -206 -12 -411 -14 -192 -1 -357 -4 -365 -6 -25 -8 -20
-76 5 -85 25 -8 615 -5 716 4 157 15 265 61 360 155 58 58 123 174 135 241 10
57 12 160 2 166 -4 3 -6 9 -3 14 9 14 -35 121 -72 178 -62 94 -192 186 -303
216 -69 18 -245 14 -313 -7 l-47 -15 -31 46 c-52 77 -168 184 -245 224 -140
74 -330 103 -484 73z"/>
</g>
</svg>
